<svg id="visual" viewBox="0 0 900 350" width="900" height="350" xmlns="http://www.w3.org/2000/svg" xmlns:xlink="http://www.w3.org/1999/xlink" version="1.1"><path d="M0 159L21.5 156.2C43 153.3 86 147.7 128.8 153C171.7 158.3 214.3 174.7 257.2 172.7C300 170.7 343 150.3 385.8 139.2C428.7 128 471.3 126 514.2 133.8C557 141.7 600 159.3 642.8 169.7C685.7 180 728.3 183 771.2 178.8C814 174.7 857 163.3 878.5 157.7L900 152L900 0L878.5 0C857 0 814 0 771.2 0C728.3 0 685.7 0 642.8 0C600 0 557 0 514.2 0C471.3 0 428.7 0 385.8 0C343 0 300 0 257.2 0C214.3 0 171.7 0 128.8 0C86 0 43 0 21.5 0L0 0Z" fill="#006394"></path><path d="M0 99L21.5 104.8C43 110.7 86 122.3 128.8 122.5C171.7 122.7 214.3 111.3 257.2 110C300 108.7 343 117.3 385.8 126.5C428.7 135.7 471.3 145.3 514.2 141.3C557 137.3 600 119.7 642.8 121.7C685.7 123.7 728.3 145.3 771.2 155.7C814 166 857 165 878.5 164.5L900 164L900 0L878.5 0C857 0 814 0 771.2 0C728.3 0 685.7 0 642.8 0C600 0 557 0 514.2 0C471.3 0 428.7 0 385.8 0C343 0 300 0 257.2 0C214.3 0 171.7 0 128.8 0C86 0 43 0 21.5 0L0 0Z" fill="#00559d"></path><path d="M0 124L21.5 120.8C43 117.7 86 111.3 128.8 110.8C171.7 110.3 214.3 115.7 257.2 116.8C300 118 343 115 385.8 114.3C428.7 113.7 471.3 115.3 514.2 108.7C557 102 600 87 642.8 80.3C685.7 73.7 728.3 75.3 771.2 80.2C814 85 857 93 878.5 97L900 101L900 0L878.5 0C857 0 814 0 771.2 0C728.3 0 685.7 0 642.8 0C600 0 557 0 514.2 0C471.3 0 428.7 0 385.8 0C343 0 300 0 257.2 0C214.3 0 171.7 0 128.8 0C86 0 43 0 21.5 0L0 0Z" fill="#00439f"></path><path d="M0 64L21.5 64.5C43 65 86 66 128.8 70.7C171.7 75.3 214.3 83.7 257.2 84.2C300 84.7 343 77.3 385.8 70.3C428.7 63.3 471.3 56.7 514.2 58.8C557 61 600 72 642.8 72.3C685.7 72.7 728.3 62.3 771.2 59.8C814 57.3 857 62.7 878.5 65.3L900 68L900 0L878.5 0C857 0 814 0 771.2 0C728.3 0 685.7 0 642.8 0C600 0 557 0 514.2 0C471.3 0 428.7 0 385.8 0C343 0 300 0 257.2 0C214.3 0 171.7 0 128.8 0C86 0 43 0 21.5 0L0 0Z" fill="#002d9c"></path><path d="M0 48L21.5 47.2C43 46.3 86 44.7 128.8 44.7C171.7 44.7 214.3 46.3 257.2 47.5C300 48.7 343 49.3 385.8 47.5C428.7 45.7 471.3 41.3 514.2 40C557 38.7 600 40.3 642.8 41.8C685.7 43.3 728.3 44.7 771.2 42.2C814 39.7 857 33.3 878.5 30.2L900 27L900 0L878.5 0C857 0 814 0 771.2 0C728.3 0 685.7 0 642.8 0C600 0 557 0 514.2 0C471.3 0 428.7 0 385.8 0C343 0 300 0 257.2 0C214.3 0 171.7 0 128.8 0C86 0 43 0 21.5 0L0 0Z" fill="#000b94"></path></svg>